<svg version="1.1" id="Capa_1" xmlns="http://www.w3.org/2000/svg" xmlns:xlink="http://www.w3.org/1999/xlink" x="0px" y="0px"
	 width="1000px" height="1000px" viewBox="0 0 1000 1000" enable-background="new 0 0 1000 1000" xml:space="preserve">
<g>
	<g>
		<path fill="#FFFFFF" d="M499.28,431.584c-37.445,0-67.916,30.471-67.916,67.916s30.471,67.916,67.916,67.916
			s67.916-30.471,67.916-67.916S536.734,431.584,499.28,431.584z M529.579,483.958c0.029,0.673,0.042,1.35,0.042,2.027
			c0,20.658-15.718,44.471-44.475,44.471c-8.827,0-17.047-2.583-23.964-7.017c1.225,0.142,2.466,0.217,3.732,0.217
			c7.326,0,14.063-2.499,19.412-6.69c-6.837-0.125-12.612-4.643-14.602-10.857c0.953,0.18,1.935,0.279,2.938,0.279
			c1.425,0,2.809-0.184,4.121-0.543c-7.151-1.434-12.538-7.748-12.538-15.329c0-0.063,0-0.134,0.004-0.192
			c2.102,1.166,4.513,1.873,7.076,1.952c-4.192-2.8-6.95-7.59-6.95-13.01c0-2.867,0.769-5.555,2.11-7.861
			c7.711,9.462,19.232,15.68,32.222,16.336c-0.268-1.145-0.405-2.336-0.405-3.565c0-8.63,7-15.634,15.63-15.634
			c4.497,0,8.555,1.902,11.409,4.94c3.564-0.702,6.904-1.998,9.93-3.795c-1.174,3.653-3.645,6.712-6.883,8.647
			c3.168-0.376,6.189-1.212,8.98-2.458C535.284,479.005,532.635,481.759,529.579,483.958z"/>
	</g>
</g>
</svg>